<svg width="22" height="22" fill="none" xmlns="http://www.w3.org/2000/svg"><path d="M20.654 13.193l-1.888-1.438c.025-.222.044-.48.044-.755 0-.274-.02-.533-.044-.755l1.89-1.438c.35-.27.447-.75.223-1.149l-1.963-3.307c-.215-.381-.697-.555-1.136-.398l-2.228.871a7.651 7.651 0 00-1.336-.756l-.34-2.3C13.822 1.33 13.432 1 12.97 1H9.033c-.46 0-.851.33-.906.76l-.34 2.308a7.93 7.93 0 00-1.335.757L4.22 3.952a.922.922 0 00-1.127.39L1.126 7.656a.878.878 0 00.223 1.153l1.888 1.437a7.1 7.1 0 00-.045.755c0 .23.015.473.043.755l-1.89 1.44a.886.886 0 00-.222 1.147l1.963 3.308c.213.38.694.553 1.136.398l2.227-.871a7.82 7.82 0 001.338.756l.338 2.3c.056.437.446.767.908.767h3.936c.461 0 .851-.33.906-.76l.34-2.307a7.99 7.99 0 001.335-.757l2.233.873c.426.161.913-.009 1.127-.39l1.974-3.325a.885.885 0 00-.23-1.141zm-.518.733l-2.039 3.348-2.45-.958a.44.44 0 00-.415.053 7.14 7.14 0 01-1.569.887.418.418 0 00-.262.326l-.432 2.585-3.994-.045-.374-2.539a.42.42 0 00-.262-.326 6.866 6.866 0 01-1.565-.885.434.434 0 00-.42-.056l-2.521.926-1.963-3.308c-.018-.032-.015-.07.006-.086l2.077-1.58a.412.412 0 00.16-.38A6.85 6.85 0 014.049 11c0-.256.021-.537.066-.887a.412.412 0 00-.161-.38L1.866 8.074l2.038-3.348 2.45.958c.14.055.296.034.417-.053a7.085 7.085 0 011.568-.887.42.42 0 00.261-.327l.433-2.585 3.995.045.373 2.54a.42.42 0 00.262.327 6.84 6.84 0 011.565.884c.12.09.28.112.42.056l2.52-.926 1.964 3.308c.018.032.014.069-.006.085l-2.077 1.58a.412.412 0 00-.161.38c.032.254.066.558.066.888 0 .33-.034.634-.066.887a.412.412 0 00.16.38l2.075 1.58c.022.018.026.056.013.079z"/><path d="M11 6.833c-2.359 0-4.278 1.87-4.278 4.167 0 2.297 1.92 4.167 4.279 4.167S15.28 13.297 15.28 11c0-2.297-1.92-4.167-4.28-4.167zm0 7.5c-1.887 0-3.422-1.495-3.422-3.333S9.113 7.667 11 7.667c1.888 0 3.423 1.495 3.423 3.333S12.889 14.333 11 14.333z"/><path d="M20.654 13.193l-1.888-1.438c.025-.222.044-.48.044-.755 0-.274-.02-.533-.044-.755l1.89-1.438c.35-.27.447-.75.223-1.149l-1.963-3.307c-.215-.381-.697-.555-1.136-.398l-2.228.871a7.651 7.651 0 00-1.336-.756l-.34-2.3C13.822 1.33 13.432 1 12.97 1H9.033c-.46 0-.851.33-.906.76l-.34 2.308a7.93 7.93 0 00-1.335.757L4.22 3.952a.922.922 0 00-1.127.39L1.126 7.656a.878.878 0 00.223 1.153l1.888 1.437a7.1 7.1 0 00-.045.755c0 .23.015.473.043.755l-1.89 1.44a.886.886 0 00-.222 1.147l1.963 3.308c.213.38.694.553 1.136.398l2.227-.871a7.82 7.82 0 001.338.756l.338 2.3c.056.437.446.767.908.767h3.936c.461 0 .851-.33.906-.76l.34-2.307a7.99 7.99 0 001.335-.757l2.233.873c.426.161.913-.009 1.127-.39l1.974-3.325a.885.885 0 00-.23-1.141zm-.518.733l-2.039 3.348-2.45-.958a.44.44 0 00-.415.053 7.14 7.14 0 01-1.569.887.418.418 0 00-.262.326l-.432 2.585-3.994-.045-.374-2.539a.42.42 0 00-.262-.326 6.866 6.866 0 01-1.565-.885.434.434 0 00-.42-.056l-2.521.926-1.963-3.308c-.018-.032-.015-.07.006-.086l2.077-1.58a.412.412 0 00.16-.38A6.85 6.85 0 014.049 11c0-.256.021-.537.066-.887a.412.412 0 00-.161-.38L1.866 8.074l2.038-3.348 2.45.958c.14.055.296.034.417-.053a7.085 7.085 0 011.568-.887.42.42 0 00.261-.327l.433-2.585 3.995.045.373 2.54a.42.42 0 00.262.327 6.84 6.84 0 011.565.884c.12.09.28.112.42.056l2.52-.926 1.964 3.308c.018.032.014.069-.006.085l-2.077 1.58a.412.412 0 00-.161.38c.032.254.066.558.066.888 0 .33-.034.634-.066.887a.412.412 0 00.16.38l2.075 1.58c.022.018.026.056.013.079z"/><path d="M11 6.833c-2.359 0-4.278 1.87-4.278 4.167 0 2.297 1.92 4.167 4.279 4.167S15.28 13.297 15.28 11c0-2.297-1.92-4.167-4.28-4.167zm0 7.5c-1.887 0-3.422-1.495-3.422-3.333S9.113 7.667 11 7.667c1.888 0 3.423 1.495 3.423 3.333S12.889 14.333 11 14.333z"/></svg>