<svg width="22" height="21" fill="none" xmlns="http://www.w3.org/2000/svg"><path d="M10.803 1.129a.198.198 0 01.078-.097A.227.227 0 0111 1c.048 0 .09.013.12.032a.199.199 0 01.077.097l2.211 5.124a2.214 2.214 0 001.83 1.327l5.566.515c.19.018.26.249.122.37l-4.2 3.682a2.21 2.21 0 00-.7 2.149l1.23 5.442a.196.196 0 01-.006.123.223.223 0 01-.076.094.226.226 0 01-.116.045.202.202 0 01-.121-.034l-4.807-2.848a2.217 2.217 0 00-2.26 0l-4.807 2.848a.203.203 0 01-.121.034.226.226 0 01-.116-.045.223.223 0 01-.076-.094.196.196 0 01-.006-.123l1.23-5.442a2.21 2.21 0 00-.7-2.15l-4.2-3.681a.211.211 0 01.122-.37l5.567-.515a2.214 2.214 0 001.829-1.327l2.21-5.124z"/></svg>