<svg width="16" height="18" fill="none" xmlns="http://www.w3.org/2000/svg"><path d="M13.714 11.383v-3.42c0-2.54-1.6-4.755-3.802-5.582.025-.131.04-.265.04-.398C9.952.888 9.078 0 8 0 6.923 0 6.05.888 6.05 1.983c0 .13.013.261.036.386a5.664 5.664 0 00-2.054 1.292 5.8 5.8 0 00-1.746 4.178v3.544c0 .125-.1.23-.225.23-1.055 0-1.955.807-2.052 1.835a2.055 2.055 0 00.512 1.565c.377.42.917.664 1.48.664h3.445C5.59 16.981 6.68 18 8 18c1.32 0 2.412-1.019 2.555-2.323H14c.563 0 1.103-.243 1.48-.664a2.08 2.08 0 00.512-1.565c-.098-1.028-1-1.835-2.052-1.835a.226.226 0 01-.226-.23zM8 1.162c.446 0 .809.369.809.822 0 .038-.006.072-.011.11a4.986 4.986 0 00-.59-.055 5.795 5.795 0 00-1.005.058c-.005-.038-.011-.073-.011-.11 0-.456.363-.825.808-.825zM8 16.84a1.44 1.44 0 01-1.4-1.162h2.8A1.44 1.44 0 018 16.84zm6.854-3.281a.883.883 0 01-.217.674.855.855 0 01-.637.284H2a.845.845 0 01-.634-.284.874.874 0 01-.22-.674c.04-.438.443-.784.915-.784.754 0 1.368-.624 1.368-1.39V7.838c0-1.272.497-2.46 1.397-3.342a4.49 4.49 0 013.343-1.3c2.426.087 4.403 2.226 4.403 4.767v3.42c0 .766.614 1.39 1.368 1.39.472 0 .872.346.915.784z"/></svg>