<svg width="19" height="20" fill="none" xmlns="http://www.w3.org/2000/svg"><path d="M16.15 0h-5.7a.927.927 0 00-.672.293A1.027 1.027 0 009.5 1c0 .265.1.52.278.707.178.188.42.293.672.293h5.7c.252 0 .494.105.672.293.178.187.278.442.278.707v14c0 .265-.1.52-.278.707a.927.927 0 01-.672.293h-5.7a.927.927 0 00-.672.293A1.027 1.027 0 009.5 19c0 .265.1.52.278.707.178.188.42.293.672.293h5.7a2.78 2.78 0 002.015-.879A3.082 3.082 0 0019 17V3c0-.796-.3-1.559-.835-2.121A2.78 2.78 0 0016.15 0z"/><path d="M5.421 13.293a.986.986 0 01.213.325 1.045 1.045 0 01-.2 1.101.948.948 0 01-.313.219.907.907 0 01-.734-.007.95.95 0 01-.309-.224l-3.8-4A1.027 1.027 0 010 10c0-.265.1-.52.278-.707l3.8-4a.95.95 0 01.309-.224.91.91 0 011.046.212c.09.094.16.205.208.328a1.046 1.046 0 01-.22 1.098L3.244 9H14.25c.252 0 .493.105.672.293.178.187.278.442.278.707 0 .265-.1.52-.278.707a.927.927 0 01-.672.293H3.243l2.179 2.293z"/></svg>