<svg width="20" height="17" fill="none" xmlns="http://www.w3.org/2000/svg"><path d="M5.544 12.759A34.567 34.567 0 0010 15.936a34.705 34.705 0 004.43-3.177c1.357-1.153 2.415-2.275 3.165-3.33l.815.58-.815-.58c.97-1.365 1.4-2.584 1.406-3.635.009-1.344-.52-2.632-1.432-3.533C16.738 1.44 15.673 1 14.566 1c-1.494 0-2.892.823-3.71 2.178L10 4.598l-.856-1.42C8.326 1.823 6.928 1 5.434 1c-1.17 0-2.277.486-3.12 1.397C1.48 3.295 1.007 4.5 1 5.799l4.544 6.96zm0 0c-1.36-1.154-2.42-2.276-3.166-3.329m3.166 3.329L2.378 9.43m0 0C1.41 8.065.993 6.85 1 5.8l1.378 3.63zm7.823 6.623z"/></svg>