<svg width="31" height="31" fill="none" xmlns="http://www.w3.org/2000/svg"><path d="M30.235 15.517c0 8.156-6.612 14.768-14.768 14.768S.699 23.673.699 15.517 7.311.75 15.467.75s14.768 6.612 14.768 14.768z" fill="#fff"/><path fill-rule="evenodd" clip-rule="evenodd" d="M12.905 8.683a4.272 4.272 0 00-4.272 4.272v5.34a4.272 4.272 0 004.272 4.272h5.34a4.272 4.272 0 004.272-4.272v-5.34a4.272 4.272 0 00-4.272-4.272h-5.34zm2.67 3.204a3.738 3.738 0 100 7.476 3.738 3.738 0 000-7.476zm3.967.763a.992.992 0 100-1.984.992.992 0 000 1.984z" fill="#5D5FEF"/></svg>