<svg width="30" height="30" fill="none" xmlns="http://www.w3.org/2000/svg"><path d="M29.536 15.131c0 8.156-6.612 14.768-14.768 14.768S0 23.287 0 15.131 6.612.363 14.768.363s14.768 6.612 14.768 14.768z" fill="#fff"/><path d="M7.911 14.879l3.276 1.222 1.268 4.078c.08.26.4.357.612.184l1.826-1.488a.545.545 0 01.664-.019l3.293 2.39a.385.385 0 00.605-.232l2.412-11.605a.386.386 0 00-.517-.438L7.907 14.156a.386.386 0 00.004.723zm4.34.572l6.4-3.943c.116-.07.234.085.136.176l-5.284 4.911a1.095 1.095 0 00-.34.656l-.18 1.333c-.023.178-.273.196-.322.024l-.692-2.432a.644.644 0 01.281-.725z" fill="#5D5FEF"/></svg>