<svg width="30" height="30" fill="none" xmlns="http://www.w3.org/2000/svg"><circle cx="15.166" cy="14.768" r="14.768" fill="#fff"/><path d="M19.948 15.915c-.247-.296-.177-.427 0-.691.003-.003 2.044-2.671 2.255-3.576h.001c.105-.33 0-.572-.505-.572h-1.673c-.425 0-.622.207-.727.44 0 0-.851 1.928-2.056 3.177-.389.361-.568.477-.78.477-.105 0-.268-.116-.268-.445v-3.077c0-.396-.119-.572-.471-.572h-2.63c-.267 0-.426.184-.426.356 0 .375.603.46.665 1.516v2.288c0 .502-.096.594-.31.594-.568 0-1.948-1.935-2.766-4.15-.165-.43-.326-.604-.755-.604H7.83c-.477 0-.573.208-.573.44 0 .412.568 2.456 2.643 5.156 1.383 1.843 3.33 2.842 5.103 2.842 1.065 0 1.195-.221 1.195-.603 0-1.761-.097-1.928.437-1.928.247 0 .673.116 1.667 1.005 1.136 1.054 1.323 1.526 1.96 1.526h1.672c.476 0 .718-.221.579-.66-.318-.92-2.467-2.813-2.564-2.94z" fill="#5D5FEF"/></svg>