<svg width="120" height="18" fill="none" xmlns="http://www.w3.org/2000/svg"><path d="M6.82 17.518c3.701 0 6.332-1.925 6.332-5.173 0-3.562-2.899-4.452-5.48-5.222-2.655-.794-3.069-1.324-3.069-2.094 0-.673.609-1.275 1.827-1.275 1.558 0 2.362.746 2.947 1.95l3.287-1.902C11.422 1.324 9.23 0 6.43 0 3.483 0 .706 1.877.706 5.126c0 3.224 2.484 4.427 5.017 5.125 2.558.698 3.532 1.107 3.532 2.142 0 .65-.463 1.371-2.314 1.371-1.924 0-2.971-.938-3.58-2.334L0 13.355c.95 2.479 3.24 4.163 6.82 4.163zm12.057-4.042v-2.984h6.089V6.834h-6.09V4.043h6.698V.337H14.98V17.18h10.716v-3.705h-6.82zm12.915 0V.336h-3.897v16.845h9.985v-3.705h-6.088zM70.06.337h-3.898L61.535 7.82 56.908.337H53.01L51.489 17.18h3.896l.762-10.545 5.169 7.898h.438l5.17-7.898 1.522 10.545h3.897L70.058.337z" fill="#5D5FEF"/><path fill-rule="evenodd" clip-rule="evenodd" d="M50.05 4.043l.334-3.706H39.597V17.18h3.896v-6.184h5.928l.335-3.706h-6.263V4.043h6.556z" fill="#5D5FEF"/><path d="M86.277 17.181h4.262L84.743.337h-4.969L73.978 17.18h4.262l.852-2.647h6.333l.852 2.647zm-6.016-6.256L82.26 4.74l1.997 6.184H80.26zM98.812.337h-6.82V17.18h6.82c4.701 0 8.281-3.657 8.281-8.422 0-4.764-3.58-8.422-8.28-8.422zm0 13.139H95.89V4.043h2.922c2.679 0 4.53 1.829 4.53 4.716 0 2.888-1.851 4.717-4.53 4.717zm14.369 0v-2.984h6.088V6.834h-6.088V4.043h6.697V.337h-10.594V17.18H120v-3.705h-6.819z" fill="#5D5FEF"/></svg>