<svg width="137" height="20" fill="none" xmlns="http://www.w3.org/2000/svg"><path d="M7.785 20c4.227 0 7.23-2.198 7.23-5.907 0-4.066-3.309-5.082-6.256-5.961-3.031-.907-3.504-1.511-3.504-2.39 0-.77.695-1.456 2.086-1.456 1.78 0 2.697.851 3.364 2.225l3.754-2.17C13.04 1.51 10.539 0 7.34 0 3.976 0 .806 2.143.806 5.852c0 3.681 2.836 5.055 5.728 5.851 2.92.797 4.032 1.264 4.032 2.445 0 .742-.528 1.566-2.642 1.566-2.196 0-3.392-1.071-4.087-2.665L0 15.248C1.084 18.077 3.698 20 7.785 20zm13.766-4.615v-3.407h6.951V7.802h-6.95V4.615h7.646V.385H17.102v19.23h12.235v-4.23H21.55zm14.744 0v-15h-4.448v19.23h11.4v-4.23h-6.952zm43.689-15h-4.449l-5.282 8.544L64.968.385H60.52l-1.738 19.23h4.449l.869-12.04 5.901 9.018h.5l5.902-9.017 1.738 12.04h4.449L79.984.384z" fill="#fff"/><path fill-rule="evenodd" clip-rule="evenodd" d="M57.14 4.615l.382-4.23H45.206v19.23h4.449v-7.06h6.767l.382-4.23h-7.149v-3.71h7.484z" fill="#fff"/><path d="M98.5 19.615h4.866L96.748.385h-5.672l-6.618 19.23h4.866l.973-3.022h7.23l.973 3.022zm-6.868-7.142l2.28-7.06 2.28 7.06h-4.56zM112.811.385h-7.786v19.23h7.786c5.366 0 9.453-4.175 9.453-9.615S118.177.385 112.811.385zm0 15h-3.337V4.615h3.337c3.058 0 5.171 2.088 5.171 5.385 0 3.297-2.113 5.385-5.171 5.385zm16.404 0v-3.407h6.951V7.802h-6.951V4.615h7.646V.385h-12.095v19.23H137v-4.23h-7.785z" fill="#fff"/></svg>