<?xml version="1.0" encoding="UTF-8"?><!DOCTYPE svg PUBLIC "-//W3C//DTD SVG 1.1//EN" "http://www.w3.org/Graphics/SVG/1.1/DTD/svg11.dtd"><svg xmlns="http://www.w3.org/2000/svg"><symbol id="account" viewBox="0 0 22 22"><path d="M20.654 13.193l-1.888-1.438c.025-.222.044-.48.044-.755 0-.274-.02-.533-.044-.755l1.89-1.438c.35-.27.447-.75.223-1.149l-1.963-3.307c-.215-.381-.697-.555-1.136-.398l-2.228.871a7.651 7.651 0 0 0-1.336-.756l-.34-2.3C13.822 1.33 13.432 1 12.97 1H9.033c-.46 0-.851.33-.906.76l-.34 2.308a7.93 7.93 0 0 0-1.335.757L4.22 3.952a.922.922 0 0 0-1.127.39L1.126 7.656a.878.878 0 0 0 .223 1.153l1.888 1.437c-.03.282-.045.526-.045.755 0 .23.015.473.043.755l-1.89 1.44a.886.886 0 0 0-.222 1.147l1.963 3.308c.213.38.694.553 1.136.398l2.227-.871c.426.299.875.552 1.338.756l.338 2.3c.056.437.446.767.908.767h3.936c.461 0 .851-.33.906-.76l.34-2.307c.448-.198.889-.447 1.335-.757l2.233.873c.426.161.913-.009 1.127-.39l1.974-3.325a.885.885 0 0 0-.23-1.141zm-.518.733l-2.039 3.348-2.45-.958a.44.44 0 0 0-.415.053 7.14 7.14 0 0 1-1.569.887.418.418 0 0 0-.262.326l-.432 2.585-3.994-.045-.374-2.539a.42.42 0 0 0-.262-.326 6.866 6.866 0 0 1-1.565-.885.434.434 0 0 0-.42-.056l-2.521.926-1.963-3.308c-.018-.032-.015-.07.006-.086l2.077-1.58a.412.412 0 0 0 .16-.38A6.85 6.85 0 0 1 4.049 11c0-.256.021-.537.066-.887a.412.412 0 0 0-.161-.38L1.866 8.074l2.038-3.348 2.45.958c.14.055.296.034.417-.053a7.085 7.085 0 0 1 1.568-.887.42.42 0 0 0 .261-.327l.433-2.585 3.995.045.373 2.54a.42.42 0 0 0 .262.327 6.84 6.84 0 0 1 1.565.884c.12.09.28.112.42.056l2.52-.926 1.964 3.308c.018.032.014.069-.006.085l-2.077 1.58a.412.412 0 0 0-.161.38c.032.254.066.558.066.888 0 .33-.034.634-.066.887a.412.412 0 0 0 .16.38l2.075 1.58c.022.018.026.056.013.079z"/><path d="M11 6.833c-2.359 0-4.278 1.87-4.278 4.167 0 2.297 1.92 4.167 4.279 4.167S15.28 13.297 15.28 11c0-2.297-1.92-4.167-4.28-4.167zm0 7.5c-1.887 0-3.422-1.495-3.422-3.333S9.113 7.667 11 7.667c1.888 0 3.423 1.495 3.423 3.333S12.889 14.333 11 14.333z"/><path d="M20.654 13.193l-1.888-1.438c.025-.222.044-.48.044-.755 0-.274-.02-.533-.044-.755l1.89-1.438c.35-.27.447-.75.223-1.149l-1.963-3.307c-.215-.381-.697-.555-1.136-.398l-2.228.871a7.651 7.651 0 0 0-1.336-.756l-.34-2.3C13.822 1.33 13.432 1 12.97 1H9.033c-.46 0-.851.33-.906.76l-.34 2.308a7.93 7.93 0 0 0-1.335.757L4.22 3.952a.922.922 0 0 0-1.127.39L1.126 7.656a.878.878 0 0 0 .223 1.153l1.888 1.437c-.03.282-.045.526-.045.755 0 .23.015.473.043.755l-1.89 1.44a.886.886 0 0 0-.222 1.147l1.963 3.308c.213.38.694.553 1.136.398l2.227-.871c.426.299.875.552 1.338.756l.338 2.3c.056.437.446.767.908.767h3.936c.461 0 .851-.33.906-.76l.34-2.307c.448-.198.889-.447 1.335-.757l2.233.873c.426.161.913-.009 1.127-.39l1.974-3.325a.885.885 0 0 0-.23-1.141zm-.518.733l-2.039 3.348-2.45-.958a.44.44 0 0 0-.415.053 7.14 7.14 0 0 1-1.569.887.418.418 0 0 0-.262.326l-.432 2.585-3.994-.045-.374-2.539a.42.42 0 0 0-.262-.326 6.866 6.866 0 0 1-1.565-.885.434.434 0 0 0-.42-.056l-2.521.926-1.963-3.308c-.018-.032-.015-.07.006-.086l2.077-1.58a.412.412 0 0 0 .16-.38A6.85 6.85 0 0 1 4.049 11c0-.256.021-.537.066-.887a.412.412 0 0 0-.161-.38L1.866 8.074l2.038-3.348 2.45.958c.14.055.296.034.417-.053a7.085 7.085 0 0 1 1.568-.887.42.42 0 0 0 .261-.327l.433-2.585 3.995.045.373 2.54a.42.42 0 0 0 .262.327 6.84 6.84 0 0 1 1.565.884c.12.09.28.112.42.056l2.52-.926 1.964 3.308c.018.032.014.069-.006.085l-2.077 1.58a.412.412 0 0 0-.161.38c.032.254.066.558.066.888 0 .33-.034.634-.066.887a.412.412 0 0 0 .16.38l2.075 1.58c.022.018.026.056.013.079z"/><path d="M11 6.833c-2.359 0-4.278 1.87-4.278 4.167 0 2.297 1.92 4.167 4.279 4.167S15.28 13.297 15.28 11c0-2.297-1.92-4.167-4.28-4.167zm0 7.5c-1.887 0-3.422-1.495-3.422-3.333S9.113 7.667 11 7.667c1.888 0 3.423 1.495 3.423 3.333S12.889 14.333 11 14.333z"/></symbol><symbol id="awards" viewBox="0 0 22 21"><path d="M10.803 1.129a.198.198 0 0 1 .078-.097A.227.227 0 0 1 11 1c.048 0 .09.013.12.032a.199.199 0 0 1 .077.097l2.211 5.124a2.214 2.214 0 0 0 1.83 1.327l5.566.515c.19.018.26.249.122.37l-4.2 3.682a2.21 2.21 0 0 0-.7 2.149l1.23 5.442a.196.196 0 0 1-.006.123.223.223 0 0 1-.076.094.226.226 0 0 1-.116.045.202.202 0 0 1-.121-.034l-4.807-2.848a2.217 2.217 0 0 0-2.26 0l-4.807 2.848a.203.203 0 0 1-.121.034.226.226 0 0 1-.116-.045.223.223 0 0 1-.076-.094.196.196 0 0 1-.006-.123l1.23-5.442a2.21 2.21 0 0 0-.7-2.15l-4.2-3.681a.211.211 0 0 1 .122-.37l5.567-.515a2.214 2.214 0 0 0 1.829-1.327l2.21-5.124z"/></symbol><symbol id="call" viewBox="0 0 16 18"><path d="M13.714 11.383v-3.42c0-2.54-1.6-4.755-3.802-5.582.025-.131.04-.265.04-.398C9.952.888 9.078 0 8 0 6.923 0 6.05.888 6.05 1.983c0 .13.013.261.036.386a5.664 5.664 0 0 0-2.054 1.292 5.8 5.8 0 0 0-1.746 4.178v3.544c0 .125-.1.23-.225.23-1.055 0-1.955.807-2.052 1.835a2.055 2.055 0 0 0 .512 1.565c.377.42.917.664 1.48.664h3.445C5.59 16.981 6.68 18 8 18c1.32 0 2.412-1.019 2.555-2.323H14c.563 0 1.103-.243 1.48-.664.377-.424.563-.993.512-1.565-.098-1.028-1-1.835-2.052-1.835a.226.226 0 0 1-.226-.23zM8 1.162c.446 0 .809.369.809.822 0 .038-.006.072-.011.11a4.986 4.986 0 0 0-.59-.055 5.795 5.795 0 0 0-1.005.058c-.005-.038-.011-.073-.011-.11 0-.456.363-.825.808-.825zM8 16.84a1.44 1.44 0 0 1-1.4-1.162h2.8A1.44 1.44 0 0 1 8 16.84zm6.854-3.281a.883.883 0 0 1-.217.674.855.855 0 0 1-.637.284H2a.845.845 0 0 1-.634-.284.874.874 0 0 1-.22-.674c.04-.438.443-.784.915-.784.754 0 1.368-.624 1.368-1.39V7.838c0-1.272.497-2.46 1.397-3.342a4.49 4.49 0 0 1 3.343-1.3c2.426.087 4.403 2.226 4.403 4.767v3.42c0 .766.614 1.39 1.368 1.39.472 0 .872.346.915.784z"/></symbol><symbol id="close" viewBox="0 0 16 12"><path d="M12.47.47l-10 10 1.06 1.06 10-10L12.47.47z"/><path d="M3.53.47l10 10-1.06 1.06-10-10L3.53.47z"/></symbol><symbol id="control" viewBox="0 0 16 18"><path d="M8 2a3 3 0 1 0 0 6 3 3 0 0 0 0-6zM3 5a5 5 0 1 1 10 0A5 5 0 0 1 3 5z" clip-rule="evenodd"/><path d="M2.298 10.685C3.784 8.985 5.832 8 8 8s4.216.985 5.702 2.685C15.185 12.38 16 14.653 16 17a1 1 0 1 1-2 0c0-1.896-.66-3.693-1.803-4.998C11.06 10.7 9.545 10 8 10s-3.058.7-4.197 2.002C2.66 13.307 2 15.104 2 17a1 1 0 1 1-2 0c0-2.347.815-4.62 2.298-6.315z" clip-rule="evenodd"/></symbol><symbol id="enter" viewBox="0 0 19 20"><path d="M16.15 0h-5.7a.927.927 0 0 0-.672.293A1.027 1.027 0 0 0 9.5 1c0 .265.1.52.278.707.178.188.42.293.672.293h5.7c.252 0 .494.105.672.293.178.187.278.442.278.707v14c0 .265-.1.52-.278.707a.927.927 0 0 1-.672.293h-5.7a.927.927 0 0 0-.672.293A1.027 1.027 0 0 0 9.5 19c0 .265.1.52.278.707.178.188.42.293.672.293h5.7a2.78 2.78 0 0 0 2.015-.879A3.082 3.082 0 0 0 19 17V3c0-.796-.3-1.559-.835-2.121A2.78 2.78 0 0 0 16.15 0z"/><path d="M5.421 13.293c.091.092.164.203.213.325a1.045 1.045 0 0 1-.2 1.101.948.948 0 0 1-.313.219.907.907 0 0 1-.734-.007.95.95 0 0 1-.309-.224l-3.8-4A1.027 1.027 0 0 1 0 10c0-.265.1-.52.278-.707l3.8-4a.95.95 0 0 1 .309-.224.91.91 0 0 1 1.046.212c.09.094.16.205.208.328a1.046 1.046 0 0 1-.22 1.098L3.244 9H14.25c.252 0 .493.105.672.293.178.187.278.442.278.707 0 .265-.1.52-.278.707a.927.927 0 0 1-.672.293H3.243l2.179 2.293z"/></symbol><symbol id="facebook" viewBox="0 0 31 30"><path fill="#fff" d="M30.383 14.768c0 8.156-6.612 14.768-14.768 14.768S.847 22.924.847 14.768 7.459 0 15.615 0s14.768 6.612 14.768 14.768z"/><path fill="#5D5FEF" d="M17.113 10.937h1.715v-2.49h-2.017v.009c-2.444.085-2.945 1.434-2.989 2.852h-.005v1.243h-1.664v2.438h1.664v6.536h2.508V14.99h2.055l.397-2.438h-2.45V11.8c0-.48.324-.863.786-.863z"/></symbol><symbol id="favorites" viewBox="0 0 20 17"><path d="M5.544 12.759A34.567 34.567 0 0 0 10 15.936a34.705 34.705 0 0 0 4.43-3.177c1.357-1.153 2.415-2.275 3.165-3.33l.815.58-.815-.58c.97-1.365 1.4-2.584 1.406-3.635.009-1.344-.52-2.632-1.432-3.533C16.738 1.44 15.673 1 14.566 1c-1.494 0-2.892.823-3.71 2.178L10 4.598l-.856-1.42C8.326 1.823 6.928 1 5.434 1c-1.17 0-2.277.486-3.12 1.397C1.48 3.295 1.007 4.5 1 5.799l4.544 6.96zm0 0c-1.36-1.154-2.42-2.276-3.166-3.329m3.166 3.329L2.378 9.43m0 0C1.41 8.065.993 6.85 1 5.8l1.378 3.63zm7.823 6.623z"/></symbol><symbol id="instagram" viewBox="0 0 31 31"><path fill="#fff" d="M30.235 15.517c0 8.156-6.612 14.768-14.768 14.768S.699 23.673.699 15.517 7.311.75 15.467.75s14.768 6.612 14.768 14.768z"/><path fill="#5D5FEF" fill-rule="evenodd" d="M12.905 8.683a4.272 4.272 0 0 0-4.272 4.272v5.34a4.272 4.272 0 0 0 4.272 4.272h5.34a4.272 4.272 0 0 0 4.272-4.272v-5.34a4.272 4.272 0 0 0-4.272-4.272h-5.34zm2.67 3.204a3.738 3.738 0 1 0 0 7.476 3.738 3.738 0 0 0 0-7.476zm3.967.763a.992.992 0 1 0 0-1.984.992.992 0 0 0 0 1.984z" clip-rule="evenodd"/></symbol><symbol id="level" viewBox="0 0 18 20"><rect width="2" height="15" x="8" y="5" rx="1"/><rect width="2" height="11" x="4" y="9" rx="1"/><rect width="2" height="7" y="13" rx="1"/><rect width="2" height="12" x="12" y="8" rx="1"/><rect width="2" height="20" x="16" rx="1"/></symbol><symbol id="portfolio" viewBox="0 0 21 21"><rect width="7.545" height="7.545" x="1" y="1" rx="1"/><rect width="7.545" height="7.545" x="1" y="12.455" rx="1"/><rect width="7.545" height="7.545" x="12.455" y="1" rx="1"/><rect width="7.545" height="7.545" x="12.455" y="12.455" rx="1"/></symbol><symbol id="premium" viewBox="0 0 24 24"><path d="M5 20h14M2 4l3 12h14l3-12-6 7-4-7-4 7-6-7z"/></symbol><symbol id="support" viewBox="0 0 20 18"><path d="M4.243 12.049l-2.636 2.015A1 1 0 0 1 0 13.269V.927C0 .68.1.445.279.27A.966.966 0 0 1 .952 0h14.286c.253 0 .495.098.674.271.178.174.278.41.278.656v11.122H4.244zm-.66-1.854h10.703V1.854H1.905v9.625l1.679-1.284zm3.084 3.707h9.75l1.678 1.284V5.561h.953c.252 0 .494.098.673.271.179.174.279.41.279.656v10.489a1 1 0 0 1-1.607.794l-2.636-2.015H7.62a.966.966 0 0 1-.673-.271.914.914 0 0 1-.28-.656v-.927z"/></symbol><symbol id="telegram" viewBox="0 0 30 30"><path fill="#fff" d="M29.536 15.131c0 8.156-6.612 14.768-14.768 14.768S0 23.287 0 15.131 6.612.363 14.768.363s14.768 6.612 14.768 14.768z"/><path fill="#5D5FEF" d="M7.911 14.879l3.276 1.222 1.268 4.078c.08.26.4.357.612.184l1.826-1.488a.545.545 0 0 1 .664-.019l3.293 2.39c.227.166.548.042.605-.232l2.412-11.605a.386.386 0 0 0-.517-.438L7.907 14.156a.386.386 0 0 0 .004.723zm4.34.572l6.4-3.943c.116-.07.234.085.136.176l-5.284 4.911a1.095 1.095 0 0 0-.34.656l-.18 1.333c-.023.178-.273.196-.322.024l-.692-2.432a.644.644 0 0 1 .281-.725z"/></symbol><symbol id="vk" viewBox="0 0 30 30"><circle cx="15.166" cy="14.768" r="14.768" fill="#fff"/><path fill="#5D5FEF" d="M19.948 15.915c-.247-.296-.177-.427 0-.691.003-.003 2.044-2.671 2.255-3.576h.001c.105-.33 0-.572-.505-.572h-1.673c-.425 0-.622.207-.727.44 0 0-.851 1.928-2.056 3.177-.389.361-.568.477-.78.477-.105 0-.268-.116-.268-.445v-3.077c0-.396-.119-.572-.471-.572h-2.63c-.267 0-.426.184-.426.356 0 .375.603.46.665 1.516v2.288c0 .502-.096.594-.31.594-.568 0-1.948-1.935-2.766-4.15-.165-.43-.326-.604-.755-.604H7.83c-.477 0-.573.208-.573.44 0 .412.568 2.456 2.643 5.156 1.383 1.843 3.33 2.842 5.103 2.842 1.065 0 1.195-.221 1.195-.603 0-1.761-.097-1.928.437-1.928.247 0 .673.116 1.667 1.005 1.136 1.054 1.323 1.526 1.96 1.526h1.672c.476 0 .718-.221.579-.66-.318-.92-2.467-2.813-2.564-2.94z"/></symbol></svg>